<svg xmlns="http://www.w3.org/2000/svg" width="216" height="216" viewBox="0 0 216 216"><circle cx="9" cy="9" r="1.11" fill="#F6C3AE" fill-opacity="0.95"/><circle cx="27" cy="9" r="1.11" fill="#1A3470" fill-opacity="0.3"/><circle cx="63" cy="9" r="1.15" fill="#1A3470" fill-opacity="0.3"/><circle cx="81" cy="9" r="1.36" fill="#1A3470" fill-opacity="0.3"/><circle cx="117" cy="9" r="1.32" fill="#3D7BF0" fill-opacity="0.38"/><circle cx="135" cy="9" r="1.38" fill="#F6C3AE" fill-opacity="0.95"/><circle cx="153" cy="9" r="1.15" fill="#3D7BF0" fill-opacity="0.38"/><circle cx="171" cy="9" r="1.40" fill="#3D7BF0" fill-opacity="0.38"/><circle cx="207" cy="9" r="1.24" fill="#F6C3AE" fill-opacity="0.95"/><circle cx="9" cy="27" r="1.25" fill="#F6C3AE" fill-opacity="0.95"/><circle cx="27" cy="27" r="1.13" fill="#F6C3AE" fill-opacity="0.95"/><circle cx="81" cy="27" r="1.18" fill="#3D7BF0" fill-opacity="0.38"/><circle cx="117" cy="27" r="1.30" fill="#3D7BF0" fill-opacity="0.38"/><circle cx="153" cy="27" r="1.27" fill="#1A3470" fill-opacity="0.3"/><circle cx="171" cy="27" r="1.16" fill="#3D7BF0" fill-opacity="0.38"/><circle cx="189" cy="27" r="1.32" fill="#3D7BF0" fill-opacity="0.38"/><circle cx="9" cy="45" r="1.19" fill="#1A3470" fill-opacity="0.3"/><circle cx="27" cy="45" r="1.33" fill="#F6C3AE" fill-opacity="0.95"/><circle cx="45" cy="45" r="1.26" fill="#F6C3AE" fill-opacity="0.95"/><circle cx="63" cy="45" r="1.33" fill="#1A3470" fill-opacity="0.3"/><circle cx="99" cy="45" r="1.28" fill="#F6C3AE" fill-opacity="0.95"/><circle cx="117" cy="45" r="1.34" fill="#3D7BF0" fill-opacity="0.38"/><circle cx="135" cy="45" r="1.37" fill="#F6C3AE" fill-opacity="0.95"/><circle cx="153" cy="45" r="1.35" fill="#1A3470" fill-opacity="0.3"/><circle cx="171" cy="45" r="1.40" fill="#F6C3AE" fill-opacity="0.95"/><circle cx="189" cy="45" r="1.24" fill="#F6C3AE" fill-opacity="0.95"/><circle cx="207" cy="45" r="1.27" fill="#F6C3AE" fill-opacity="0.95"/><circle cx="9" cy="63" r="1.11" fill="#3D7BF0" fill-opacity="0.38"/><circle cx="27" cy="63" r="1.38" fill="#3D7BF0" fill-opacity="0.38"/><circle cx="63" cy="63" r="1.28" fill="#1A3470" fill-opacity="0.3"/><circle cx="81" cy="63" r="1.48" fill="#3D7BF0" fill-opacity="0.38"/><circle cx="99" cy="63" r="1.46" fill="#1A3470" fill-opacity="0.3"/><circle cx="117" cy="63" r="1.33" fill="#3D7BF0" fill-opacity="0.38"/><circle cx="135" cy="63" r="1.46" fill="#1A3470" fill-opacity="0.3"/><circle cx="153" cy="63" r="1.31" fill="#F6C3AE" fill-opacity="0.95"/><circle cx="171" cy="63" r="1.26" fill="#1A3470" fill-opacity="0.3"/><circle cx="189" cy="63" r="1.30" fill="#F6C3AE" fill-opacity="0.95"/><circle cx="207" cy="63" r="1.26" fill="#1A3470" fill-opacity="0.3"/><circle cx="9" cy="81" r="1.43" fill="#F6C3AE" fill-opacity="0.95"/><circle cx="27" cy="81" r="1.46" fill="#1A3470" fill-opacity="0.3"/><circle cx="45" cy="81" r="1.32" fill="#F6C3AE" fill-opacity="0.95"/><circle cx="63" cy="81" r="1.13" fill="#1A3470" fill-opacity="0.3"/><circle cx="81" cy="81" r="1.39" fill="#1A3470" fill-opacity="0.3"/><circle cx="117" cy="81" r="1.36" fill="#3D7BF0" fill-opacity="0.38"/><circle cx="135" cy="81" r="1.42" fill="#F6C3AE" fill-opacity="0.95"/><circle cx="153" cy="81" r="1.43" fill="#F6C3AE" fill-opacity="0.95"/><circle cx="171" cy="81" r="1.41" fill="#3D7BF0" fill-opacity="0.38"/><circle cx="189" cy="81" r="1.15" fill="#1A3470" fill-opacity="0.3"/><circle cx="207" cy="81" r="1.28" fill="#3D7BF0" fill-opacity="0.38"/><circle cx="9" cy="99" r="1.33" fill="#3D7BF0" fill-opacity="0.38"/><circle cx="27" cy="99" r="1.49" fill="#3D7BF0" fill-opacity="0.38"/><circle cx="45" cy="99" r="1.38" fill="#1A3470" fill-opacity="0.3"/><circle cx="63" cy="99" r="1.50" fill="#3D7BF0" fill-opacity="0.38"/><circle cx="81" cy="99" r="1.11" fill="#1A3470" fill-opacity="0.3"/><circle cx="99" cy="99" r="1.17" fill="#1A3470" fill-opacity="0.3"/><circle cx="117" cy="99" r="1.12" fill="#F6C3AE" fill-opacity="0.95"/><circle cx="135" cy="99" r="1.29" fill="#3D7BF0" fill-opacity="0.38"/><circle cx="153" cy="99" r="1.22" fill="#F6C3AE" fill-opacity="0.95"/><circle cx="171" cy="99" r="1.15" fill="#F6C3AE" fill-opacity="0.95"/><circle cx="189" cy="99" r="1.23" fill="#1A3470" fill-opacity="0.3"/><circle cx="207" cy="99" r="1.35" fill="#3D7BF0" fill-opacity="0.38"/><circle cx="9" cy="117" r="1.26" fill="#F6C3AE" fill-opacity="0.95"/><circle cx="27" cy="117" r="1.41" fill="#3D7BF0" fill-opacity="0.38"/><circle cx="45" cy="117" r="1.43" fill="#3D7BF0" fill-opacity="0.38"/><circle cx="63" cy="117" r="1.25" fill="#3D7BF0" fill-opacity="0.38"/><circle cx="81" cy="117" r="1.26" fill="#1A3470" fill-opacity="0.3"/><circle cx="99" cy="117" r="1.15" fill="#F6C3AE" fill-opacity="0.95"/><circle cx="135" cy="117" r="1.42" fill="#F6C3AE" fill-opacity="0.95"/><circle cx="153" cy="117" r="1.48" fill="#3D7BF0" fill-opacity="0.38"/><circle cx="171" cy="117" r="1.28" fill="#F6C3AE" fill-opacity="0.95"/><circle cx="189" cy="117" r="1.29" fill="#1A3470" fill-opacity="0.3"/><circle cx="207" cy="117" r="1.26" fill="#F6C3AE" fill-opacity="0.95"/><circle cx="9" cy="135" r="1.32" fill="#1A3470" fill-opacity="0.3"/><circle cx="27" cy="135" r="1.28" fill="#3D7BF0" fill-opacity="0.38"/><circle cx="45" cy="135" r="1.46" fill="#3D7BF0" fill-opacity="0.38"/><circle cx="63" cy="135" r="1.45" fill="#3D7BF0" fill-opacity="0.38"/><circle cx="81" cy="135" r="1.19" fill="#3D7BF0" fill-opacity="0.38"/><circle cx="99" cy="135" r="1.34" fill="#F6C3AE" fill-opacity="0.95"/><circle cx="117" cy="135" r="1.33" fill="#F6C3AE" fill-opacity="0.95"/><circle cx="153" cy="135" r="1.48" fill="#F6C3AE" fill-opacity="0.95"/><circle cx="171" cy="135" r="1.32" fill="#3D7BF0" fill-opacity="0.38"/><circle cx="189" cy="135" r="1.48" fill="#3D7BF0" fill-opacity="0.38"/><circle cx="207" cy="135" r="1.44" fill="#1A3470" fill-opacity="0.3"/><circle cx="9" cy="153" r="1.13" fill="#3D7BF0" fill-opacity="0.38"/><circle cx="27" cy="153" r="1.18" fill="#1A3470" fill-opacity="0.3"/><circle cx="45" cy="153" r="1.26" fill="#F6C3AE" fill-opacity="0.95"/><circle cx="63" cy="153" r="1.30" fill="#1A3470" fill-opacity="0.3"/><circle cx="81" cy="153" r="1.25" fill="#F6C3AE" fill-opacity="0.95"/><circle cx="99" cy="153" r="1.40" fill="#F6C3AE" fill-opacity="0.95"/><circle cx="117" cy="153" r="1.48" fill="#3D7BF0" fill-opacity="0.38"/><circle cx="153" cy="153" r="1.33" fill="#3D7BF0" fill-opacity="0.38"/><circle cx="171" cy="153" r="1.15" fill="#F6C3AE" fill-opacity="0.95"/><circle cx="189" cy="153" r="1.16" fill="#3D7BF0" fill-opacity="0.38"/><circle cx="207" cy="153" r="1.44" fill="#1A3470" fill-opacity="0.3"/><circle cx="27" cy="171" r="1.20" fill="#F6C3AE" fill-opacity="0.95"/><circle cx="45" cy="171" r="1.33" fill="#3D7BF0" fill-opacity="0.38"/><circle cx="63" cy="171" r="1.47" fill="#1A3470" fill-opacity="0.3"/><circle cx="81" cy="171" r="1.46" fill="#3D7BF0" fill-opacity="0.38"/><circle cx="99" cy="171" r="1.29" fill="#3D7BF0" fill-opacity="0.38"/><circle cx="135" cy="171" r="1.16" fill="#3D7BF0" fill-opacity="0.38"/><circle cx="153" cy="171" r="1.15" fill="#F6C3AE" fill-opacity="0.95"/><circle cx="189" cy="171" r="1.12" fill="#1A3470" fill-opacity="0.3"/><circle cx="207" cy="171" r="1.29" fill="#1A3470" fill-opacity="0.3"/><circle cx="27" cy="189" r="1.45" fill="#3D7BF0" fill-opacity="0.38"/><circle cx="45" cy="189" r="1.42" fill="#F6C3AE" fill-opacity="0.95"/><circle cx="63" cy="189" r="1.47" fill="#3D7BF0" fill-opacity="0.38"/><circle cx="81" cy="189" r="1.35" fill="#F6C3AE" fill-opacity="0.95"/><circle cx="99" cy="189" r="1.10" fill="#1A3470" fill-opacity="0.3"/><circle cx="117" cy="189" r="1.22" fill="#1A3470" fill-opacity="0.3"/><circle cx="135" cy="189" r="1.30" fill="#3D7BF0" fill-opacity="0.38"/><circle cx="153" cy="189" r="1.22" fill="#F6C3AE" fill-opacity="0.95"/><circle cx="171" cy="189" r="1.19" fill="#3D7BF0" fill-opacity="0.38"/><circle cx="189" cy="189" r="1.44" fill="#F6C3AE" fill-opacity="0.95"/><circle cx="207" cy="189" r="1.11" fill="#3D7BF0" fill-opacity="0.38"/><circle cx="9" cy="207" r="1.30" fill="#1A3470" fill-opacity="0.3"/><circle cx="27" cy="207" r="1.32" fill="#F6C3AE" fill-opacity="0.95"/><circle cx="45" cy="207" r="1.30" fill="#3D7BF0" fill-opacity="0.38"/><circle cx="63" cy="207" r="1.39" fill="#3D7BF0" fill-opacity="0.38"/><circle cx="81" cy="207" r="1.47" fill="#1A3470" fill-opacity="0.3"/><circle cx="99" cy="207" r="1.18" fill="#3D7BF0" fill-opacity="0.38"/><circle cx="117" cy="207" r="1.36" fill="#1A3470" fill-opacity="0.3"/><circle cx="153" cy="207" r="1.42" fill="#F6C3AE" fill-opacity="0.95"/><circle cx="171" cy="207" r="1.33" fill="#3D7BF0" fill-opacity="0.38"/><circle cx="189" cy="207" r="1.36" fill="#1A3470" fill-opacity="0.3"/><circle cx="207" cy="207" r="1.43" fill="#3D7BF0" fill-opacity="0.38"/></svg>
